<svg width="84" height="24" viewBox="0 0 84 24" fill="none" xmlns="http://www.w3.org/2000/svg">
<path d="M5.0859 21.07L6.8339 11.203L10.3069 23.002L12.6989 20.84L16.2179 0.807H12.0319L10.6059 8.972L8.4439 0.807H2.1419L3.9589 3.636L0.876898 21.07H5.0859ZM29.1615 0.807L28.1495 6.603H23.9635L24.2855 4.717H22.5605L21.8475 8.857H27.2295L22.8595 12.767H21.1575L20.3755 17.16H22.1005L22.4455 15.251H26.6315L25.5965 21.07H15.4765L18.5585 3.636L16.7415 0.807H29.1615ZM38.9015 21.07H28.4365L31.5185 3.636L29.7015 0.807H42.4665C42.5891 0.807 42.7118 0.860666 42.8345 0.967999C42.9725 1.06 43.0875 1.175 43.1795 1.313C43.2868 1.451 43.3635 1.59667 43.4095 1.75C43.4708 1.90333 43.4938 2.03367 43.4785 2.141L42.0985 10.007L40.0285 11.295L41.6615 12.537L40.3735 19.736C40.3581 19.8433 40.2891 19.9737 40.1665 20.127C40.0591 20.2803 39.9288 20.426 39.7755 20.564C39.6375 20.702 39.4841 20.817 39.3155 20.909C39.1621 21.0163 39.0241 21.07 38.9015 21.07ZM38.3725 7.224L38.8095 4.717H35.5205L34.8995 8.351L33.7035 9.294L34.3015 11.755L33.3355 17.16H36.6245L37.3835 12.882L35.7045 13.894L34.7385 9.754L38.3725 7.224ZM44.0962 0.807H50.5822L47.7072 17.16H50.6742L53.5492 0.807H57.7582L54.1932 21.07H44.0732C43.9506 21.07 43.8279 21.0163 43.7052 20.909C43.5826 20.817 43.4676 20.702 43.3602 20.564C43.2529 20.426 43.1686 20.2803 43.1072 20.127C43.0612 19.9737 43.0459 19.8433 43.0612 19.736L45.9132 3.636L44.0962 0.807ZM58.2493 0.807H64.7583L61.8833 17.16H63.6083L63.9533 15.251H68.1393L67.1043 21.07H56.9843L60.0663 3.636L58.2493 0.807ZM69.2083 21.07L76.2463 0.807H83.2153L83.1233 21.07H78.5693L78.5233 19.115L74.9123 14.239H78.7303L78.8683 6.557L78.8223 5.982L76.3153 13.48H73.2333L75.3493 16.47L73.7623 21.07H69.2083Z" fill="black"/>
</svg>
